# xmcd
#
# Track frame offsets:
#	150
#	13494
#	31945
#	50842
#	68252
#	92123
#	112386
#	128672
#	148462
#	170174
#
# Disc length: 2495 seconds
# Revision: 0
# Processed by: cddbd v1.5.2PL0 Copyright (c) Steve Scherf et al.
# Submitted via: dBpowerAMP V12.0
#
DISCID=9909bd0a
DTITLE=Various Artist - Slings and Arrows
DYEAR=2017
DGENRE=Americana
TTITLE0=Michelle Malone - Just Getting Started
TTITLE1=Michelle Malone - Love Yourself
TTITLE2=Michelle Malone - Sugar On My Tongue
TTITLE3=Michelle Malone - Beast's Boogie
TTITLE4=Michelle Malone feat. Shawn Mullins - I've Been Loving You Too Long
TTITLE5=Michelle Malone - Fox And The Hound
TTITLE6=Michelle Malone - Civil War
TTITLE7=Michelle Malone - Matador
TTITLE8=Michelle Malone - The Flame
TTITLE9=Michelle Malone - Boxing Gloves
EXTD=
EXTT0=
EXTT1=
EXTT2=
EXTT3=
EXTT4=
EXTT5=
EXTT6=
EXTT7=
EXTT8=
EXTT9=
PLAYORDER=
